<svg xmlns="http://www.w3.org/2000/svg" width="17.906" height="18" viewBox="0 0 17.906 18">
  <path id="Union_20" data-name="Union 20" d="M-2039.642,670.607l-.008,0-.333-.178a6.564,6.564,0,0,1-1.039-.8l-.08-.082a5.938,5.938,0,0,1-.887-1.2,3.968,3.968,0,0,1-.221-.415l-.066-.137c-.035-.083-.068-.173-.1-.264h0l-.013-.037a7.958,7.958,0,0,1-.219-.849,7.882,7.882,0,0,1,.169-3.354l.005-.019a.909.909,0,0,1,.507-.55,1.066,1.066,0,0,1,.935.119l.052.029,3.124,3.119-.01.01.357.361.2.2h0l2.73,2.77a1.176,1.176,0,0,1,.3.978.925.925,0,0,1-.629.644l-.06.018a9.3,9.3,0,0,1-2.027.242A6,6,0,0,1-2039.642,670.607Zm-2.062-6.724a6.422,6.422,0,0,0,.1,3.265l.005.015a4.045,4.045,0,0,0,.155.392l0,.007a3.321,3.321,0,0,0,.18.337l0,.007a4.363,4.363,0,0,0,.96,1.212l.048.043a3.1,3.1,0,0,0,.245.233l.081.065c.047.036.094.07.14.1l.165.092c.05.029.1.056.145.082l.009.005a5.991,5.991,0,0,0,4.325.4.346.346,0,0,0,.077-.043.528.528,0,0,0-.1-.189l-2.491-2.526-.1-.1-1.26-1.274.006-.006-2.187-2.184a.521.521,0,0,0-.283-.113A.237.237,0,0,0-2041.7,663.883Zm7.87,5.651-2.859-2.878a.955.955,0,0,1-.055-1.319l.531-.562a.964.964,0,0,1,1.357-.032l.027.025,1.575,1.587a.351.351,0,0,0,.5,0,.358.358,0,0,0,0-.5l-2.1-2.119-.17-.172-.137-.138-1.787-1.8a.347.347,0,0,0-.249-.1.348.348,0,0,0-.249.1.353.353,0,0,0-.1.251.353.353,0,0,0,.1.251l1.207,1.218.011.015a1.013,1.013,0,0,1,.11,1.128l-.026.036-.806.749-.053.027a1.132,1.132,0,0,1-.517.132.986.986,0,0,1-.648-.246l-.024-.022-3.081-3.151-.014-.02a1.485,1.485,0,0,1-.109-1.488l.013-.026a14.554,14.554,0,0,1,6.149-6.079l.023-.011a1.013,1.013,0,0,1,1.178.238l3.152,3.306a.9.9,0,0,1,.06,1.193l-.029.033-.535.561a.782.782,0,0,1-.565.26h-.01a.868.868,0,0,1-.589-.252l-1.259-1.268a.351.351,0,0,0-.5,0,.353.353,0,0,0-.1.251.354.354,0,0,0,.1.251l1.667,1.679.269.271.384.387.017.017,1.861,1.875a.348.348,0,0,0,.249.1.349.349,0,0,0,.249-.1.353.353,0,0,0,.1-.251.353.353,0,0,0-.1-.251l-1.593-1.605a.936.936,0,0,1-.216-.987,1.5,1.5,0,0,1,1.188-1.011l.011,0,.074-.012h0a1.092,1.092,0,0,1,.518.054,2.057,2.057,0,0,1,.609.46l2.3,2.321a2.3,2.3,0,0,1,.542.911v0l0,.017a2.121,2.121,0,0,1-.038,1.22l-.022.049a14.407,14.407,0,0,1-5.8,5.762l-.043.021a1.629,1.629,0,0,1-.613.123A1.687,1.687,0,0,1-2033.834,669.534Zm-1.729-3.969a.419.419,0,0,0-.38.377,1.012,1.012,0,0,0,.3.558l2.407,2.423a.782.782,0,0,0,.815.169,13.531,13.531,0,0,0,5.414-5.36h0a1.311,1.311,0,0,0,.005-.692,1.457,1.457,0,0,0-.327-.536l-2.188-2.211c-.279-.282-.5-.241-.55-.229a.518.518,0,0,0-.341.362.631.631,0,0,0,.167.417l1.227,1.236a1.208,1.208,0,0,1,.353.857,1.209,1.209,0,0,1-.353.857,1.2,1.2,0,0,1-1.469.183,1.214,1.214,0,0,1,.17.622,1.209,1.209,0,0,1-.352.857,1.192,1.192,0,0,1-.851.355,1.21,1.21,0,0,1-.337-.048,1.221,1.221,0,0,1-.3,1.2,1.192,1.192,0,0,1-.851.355,1.191,1.191,0,0,1-.851-.355l-1.007-1.015a1.031,1.031,0,0,0-.678-.383Zm3.8-.713a.351.351,0,0,0,.5,0,.354.354,0,0,0,.1-.251.355.355,0,0,0-.1-.251l-2.246-2.263-.134-.135-1.818-1.832a.351.351,0,0,0-.5,0,.352.352,0,0,0-.1.251.353.353,0,0,0,.1.251l1.825,1.838.133.134.2.2.008.008h0Zm-3.094-9.686a13.71,13.71,0,0,0-5.773,5.706.639.639,0,0,0,.022.606l2.544,2.6.009.009a.808.808,0,0,0,.55.257c.749-.091.176-.879.176-.879l-.726-.732a1.208,1.208,0,0,1-.353-.857,1.209,1.209,0,0,1,.353-.857,1.191,1.191,0,0,1,.851-.355,1.207,1.207,0,0,1,.336.047h0a1.232,1.232,0,0,1-.047-.339,1.208,1.208,0,0,1,.353-.857,1.19,1.19,0,0,1,.851-.355,1.189,1.189,0,0,1,.617.171,1.213,1.213,0,0,1-.17-.622,1.209,1.209,0,0,1,.353-.857,1.2,1.2,0,0,1,1.7,0l.833.84,0,0c.035.035.278.267.507.2a.446.446,0,0,0,.216-.33.43.43,0,0,0-.1-.3l-2.9-3.045a.192.192,0,0,0-.137-.068A.182.182,0,0,0-2034.859,655.166Zm8.558,6.617-.046-.028-.024-.025-2.361-2.427-1.008-.97-.561-.506-2.882-2.981-.031-.08a1.09,1.09,0,0,1,.012-.788.985.985,0,0,1,.578-.518l.053-.016a6.716,6.716,0,0,1,5.063.581,2.481,2.481,0,0,1,.42.256c.064.042.127.085.186.127l.05.041a5.575,5.575,0,0,1,.741.836c.083.107.162.215.237.322a4.335,4.335,0,0,1,.369.569l.174.3-.016.016h0a6.941,6.941,0,0,1,.135,5.02l-.025.055a.652.652,0,0,1-.4.328.688.688,0,0,1-.184.024A.972.972,0,0,1-2026.3,661.783Zm-6.051-7.51a.15.15,0,0,0-.075.055.147.147,0,0,0-.007.067l2.73,2.823.542.488,1.031.991,2.2,2.264a5.985,5.985,0,0,0-.316-4.354l-.016-.03a3.432,3.432,0,0,0-.294-.452l-.012-.017c-.074-.105-.153-.213-.237-.32l-.04-.06a4.765,4.765,0,0,0-.575-.636l-.149-.1-.021-.015c-.041-.031-.082-.06-.121-.085h0l-.2-.111a5.384,5.384,0,0,0-2.73-.716A7.771,7.771,0,0,0-2032.352,654.273Z" transform="translate(2042.715 -653.207)" fill="#edf2f4"/>
</svg>
