<svg xmlns="http://www.w3.org/2000/svg" width="18.098" height="18.098" viewBox="0 0 18.098 18.098">
  <g id="icon-poker_Mesa_de_trabajo_1" data-name="icon-poker_Mesa de trabajo 1" transform="translate(-178.4 -178.39)">
    <path id="Path_607" data-name="Path 607" d="M187.418,178.39a9.049,9.049,0,1,0,9.08,9,9.059,9.059,0,0,0-9.08-9Zm.818,1.558a7.671,7.671,0,0,1,5.331,3.083l-1.958,1.132a5.646,5.646,0,0,0-3.373-1.966Zm-1.587,0V182.2a5.551,5.551,0,0,0-3.348,1.974l-1.966-1.14A7.653,7.653,0,0,1,186.649,179.947Zm-6.035,10.684a7.88,7.88,0,0,1,.054-6.379l2.028,1.189a5.775,5.775,0,0,0-.064,4.054Zm6.064,4.292a7.617,7.617,0,0,1-5.347-3.072l1.963-1.144a5.582,5.582,0,0,0,3.384,1.976v2.239Zm.736-3.711a3.774,3.774,0,1,1,3.806-3.758,3.8,3.8,0,0,1-3.806,3.758Zm.782,3.72c0-.692-.018-1.323.015-1.951a.513.513,0,0,1,.312-.365,5.43,5.43,0,0,0,3.072-1.91l1.967,1.143a7.63,7.63,0,0,1-5.365,3.085Zm4.172-5.524a5.8,5.8,0,0,0,.113-3.593.565.565,0,0,1,.183-.495c.507-.334,1.047-.618,1.65-.965a7.58,7.58,0,0,1,.017,6.17l-1.962-1.118Z" transform="translate(0 0)" fill="#edf2f4"/>
    <path id="Path_608" data-name="Path 608" d="M343.292,342.885a1.956,1.956,0,0,0,.6,1.244,2.5,2.5,0,0,0-1.54-.014,5.075,5.075,0,0,0,.354-.561,2.965,2.965,0,0,0,.187-.64,1.468,1.468,0,0,1-.858.352,1.271,1.271,0,0,1-1.358-1.372,1.372,1.372,0,0,1,.57-.91c.432-.382.867-.762,1.283-1.16a8.176,8.176,0,0,0,.565-.663l.348.428a9.253,9.253,0,0,0,1.51,1.41,1.217,1.217,0,0,1,.535,1.266,1.3,1.3,0,0,1-2.077.72l-.12-.1Z" transform="translate(-155.645 -154.205)" fill="#edf2f4"/>
  </g>
</svg>
