<svg xmlns="http://www.w3.org/2000/svg" width="345.999" height="86.502" viewBox="0 0 345.999 86.502">
  <g id="svg_group" data-name="svg group" transform="translate(-323 -877.498)">
    <g id="icons" transform="translate(326 878.002)">
      <g id="Bitcoin_cash" data-name="Bitcoin cash">
        <path id="bitcoin" d="M-16777-878a21,21,0,0,1,21-21,21,21,0,0,1,21,21,21,21,0,0,1-21,21A21,21,0,0,1-16777-878Zm20.75,8.071v3.7h2.27v-3.613a19.209,19.209,0,0,0,2.273-.168,5.176,5.176,0,0,0,3.191-1.516,5.131,5.131,0,0,0,1.264-3.448,3.642,3.642,0,0,0-1.264-3.112,19.01,19.01,0,0,0-1.68-1.095c.168-.164.422-.333.674-.585a2.36,2.36,0,0,0,.59-.674,3.672,3.672,0,0,0-1.1-5.048,7.717,7.717,0,0,0-3.533-1.175c-.336,0-.42-.084-.42-.421v-3.28h-2.354v3.617h-1.512v-3.617h-2.273v3.617h-4.539v2.354h1.764c.842,0,1.1.253,1.1,1.095v9.84c0,.754-.254,1.091-1.1,1.091h-1.512v2.442h4.371v3.7h2.273v-3.7Zm-1.516-2.695V-877.5h1.432c.922.084,1.848.084,2.773.168.086,0,.17.084.254.084,1.09.337,1.68.922,1.68,1.764a2.446,2.446,0,0,1-1.6,2.522,5.452,5.452,0,0,1-1.684.337Zm0-7.145.084-4.459a11.717,11.717,0,0,1,3.449.253,1.978,1.978,0,0,1,1.516,1.6,2.227,2.227,0,0,1-1.012,2.274,2.385,2.385,0,0,1-1.094.337Z" transform="translate(17073.002 898.998)" fill="#fff" stroke="rgba(0,0,0,0)" stroke-miterlimit="10" stroke-width="1"/>
        <text id="Bitcoin_cash-2" data-name="Bitcoin cash" transform="translate(317.999 63.998)" fill="#edf2f4" font-size="16" font-family="SegoeUI, Segoe UI"><tspan x="-24.082" y="0">Bitcoin</tspan><tspan x="-15.688" y="18">cash</tspan></text>
      </g>
      <g id="Ethereum">
        <path id="Ethereum-2" data-name="Ethereum" d="M-16703-878a21,21,0,0,1,21-21,21,21,0,0,1,21,21,21,21,0,0,1-21,21A21,21,0,0,1-16703-878Zm10.518.922c.055.046.1.092.15.143q4.849,6.068,9.691,12.131c.209.26.42.516.641.788l10.422-13.028a.646.646,0,0,0-.3.059q-4.963,2.075-9.932,4.133a.568.568,0,0,1-.4-.008c-.9-.361-1.8-.738-2.691-1.111l-7.586-3.157Zm10.32-14.705q-5.095,6.8-10.191,13.594c-.037.046-.084.092-.125.134V-878a.664.664,0,0,1,.074.029q5.127,1.71,10.258,3.412a.673.673,0,0,0,.387-.025q4.081-1.352,8.162-2.716c.682-.231,1.369-.461,2.082-.7-.08-.109-.143-.2-.205-.281q-5.036-6.715-10.064-13.435a2.325,2.325,0,0,1-.16-.273l-.1,0A1.746,1.746,0,0,1-16682.162-891.781Zm-4.648,18.943c.15.046.225.067.3.1,1.412.591,2.83,1.186,4.246,1.769a.352.352,0,0,1,.273.39c-.014,1.149-.006,2.293-.006,3.442v.235l-.062.008Zm5.57-16.734v10.853l-8.871.985Z" transform="translate(16925 898.998)" fill="#fff" stroke="rgba(0,0,0,0)" stroke-miterlimit="10" stroke-width="1"/>
        <text id="Ethereum-3" data-name="Ethereum" transform="translate(243 63.998)" fill="#edf2f4" font-size="16" font-family="SegoeUI, Segoe UI"><tspan x="-33.852" y="0">Ethereum</tspan></text>
      </g>
      <g id="Dogecoin">
        <path id="Dogecoin-2" data-name="Dogecoin" d="M-16629-878a21,21,0,0,1,21-21,21,21,0,0,1,21,21,21,21,0,0,1-21,21A21,21,0,0,1-16629-878Zm11.543,1.235h2.68v10.108h7.609s10.7.9,10.7-11.159c0-11.861-10.229-11.539-11.777-11.539h-6.527v10.112h-2.68Zm10.109,5.909h-3.146v-5.914h4.719v-2.479h-4.719v-5.914h3c1.119,0,6.766.451,6.773,7.424.008,6.795-5.527,6.882-6.559,6.882Z" transform="translate(16777.004 898.998)" fill="#fff" stroke="rgba(0,0,0,0)" stroke-miterlimit="10" stroke-width="1"/>
        <text id="Dogecoin-3" data-name="Dogecoin" transform="translate(169 63.998)" fill="#edf2f4" font-size="16" font-family="SegoeUI, Segoe UI"><tspan x="-34.039" y="0">Dogecoin</tspan></text>
      </g>
      <g id="Litecoin">
        <path id="Litcoin" d="M19.59,0H22.38c.5.062,1,.116,1.5.189A20.7,20.7,0,0,1,34.654,5.051a20.652,20.652,0,0,1,7.11,12.807c.09.577.158,1.158.236,1.736v2.788c-.027.119-.063.236-.079.357-.1.729-.148,1.467-.291,2.187a20.554,20.554,0,0,1-7.749,12.623,20.576,20.576,0,0,1-15.823,4.226A19.475,19.475,0,0,1,8.6,37.935C2.047,32.918-.766,26.259.179,18.075A19.413,19.413,0,0,1,4.053,8.56,20.737,20.737,0,0,1,17.811.242C18.4.146,19,.08,19.59,0M32.4,26.836H20.25c.5-1.858.983-3.645,1.445-5.439a.6.6,0,0,1,.437-.468c.989-.352,1.971-.725,2.963-1.068a.58.58,0,0,0,.425-.474c.181-.755.4-1.5.594-2.251.072-.268.137-.537.222-.873l-3.615,1.311c.87-3.275,1.718-6.465,2.577-9.7h-.458c-2.108,0-4.213.009-6.321-.009-.389,0-.556.094-.659.493-1.028,3.94-2.084,7.873-3.125,11.811a.633.633,0,0,1-.454.5c-.725.241-1.429.532-2.156.772a.555.555,0,0,0-.407.445c-.168.688-.355,1.372-.533,2.057L10.9,25.033l2.8-1.011-1.983,7.452H31.16Z" transform="translate(74 -0.002)" fill="#fff"/>
        <text id="Litecoin-2" data-name="Litecoin" transform="translate(95 63.998)" fill="#edf2f4" font-size="16" font-family="SegoeUI, Segoe UI"><tspan x="-27.445" y="0">Litecoin</tspan></text>
      </g>
      <g id="bitcoin-cash">
        <path id="Bitcoin_cash-3" data-name="Bitcoin cash" d="M0,21A21,21,0,1,1,21,42,21,21,0,0,1,0,21Zm20.746,8.069v3.7h2.271V29.151a19.054,19.054,0,0,0,2.273-.167,5.2,5.2,0,0,0,3.2-1.513,5.148,5.148,0,0,0,1.257-3.449,3.648,3.648,0,0,0-1.257-3.111c-.595-.419-1.1-.756-1.688-1.094.172-.167.423-.337.674-.59a2.247,2.247,0,0,0,.591-.671A3.672,3.672,0,0,0,26.97,13.51a7.669,7.669,0,0,0-3.53-1.176c-.34,0-.423-.085-.423-.423V8.634H20.663v3.615H19.148V8.634H16.875v3.615H12.338V14.6H14.1c.842,0,1.093.252,1.093,1.094v9.838c0,.756-.251,1.094-1.093,1.094H12.589v2.44h4.372v3.7H19.23v-3.7ZM19.23,26.377V21.5h1.433c.925.082,1.85.082,2.778.167.079,0,.165.085.251.085,1.089.334,1.68.923,1.68,1.765a2.446,2.446,0,0,1-1.6,2.522,5.389,5.389,0,0,1-1.68.337Zm0-7.149.086-4.457a11.806,11.806,0,0,1,3.448.252,1.972,1.972,0,0,1,1.512,1.6,2.214,2.214,0,0,1-1.007,2.273,2.392,2.392,0,0,1-1.093.334Z" transform="translate(0 -0.002)" fill="#fff" stroke="rgba(0,0,0,0)" stroke-miterlimit="10" stroke-width="1"/>
        <text id="Bitcoin_Cash-4" data-name="Bitcoin
Cash" transform="translate(22 63.998)" fill="#edf2f4" font-size="16" font-family="SegoeUI, Segoe UI"><tspan x="-24.082" y="0">Bitcoin</tspan><tspan x="-16.945" y="18">Cash</tspan></text>
      </g>
    </g>
    <g id="lines" transform="translate(0 -15)">
      <path id="Path_6648" data-name="Path 6648" d="M0,0H33.369" transform="translate(367.5 913.5)" fill="none" stroke="#edf2f4" stroke-width="2"/>
      <path id="Path_6649" data-name="Path 6649" d="M0,0H33.846" transform="translate(440.654 913.5)" fill="none" stroke="#edf2f4" stroke-width="2"/>
      <path id="Path_6650" data-name="Path 6650" d="M0,0H33.119" transform="translate(515.381 913.5)" fill="none" stroke="#edf2f4" stroke-width="2"/>
      <path id="Path_6651" data-name="Path 6651" d="M0,0H33.139" transform="translate(589.361 913.5)" fill="none" stroke="#edf2f4" stroke-width="2"/>
    </g>
  </g>
</svg>
