<svg xmlns="http://www.w3.org/2000/svg" width="20.153" height="18.17" viewBox="0 0 20.153 18.17">
  <path id="Union_22" data-name="Union 22" d="M-3086.362,694.173c-4.1-.022-8.561-.025-13.627,0a1.274,1.274,0,0,1-.933-.278,1.167,1.167,0,0,1-.279-.873c.033-2.561.033-5.064,0-7.44a1.2,1.2,0,0,1,.286-.9.778.778,0,0,1,.2-.144h0l.074-.032.29-.13,6.438-1.951,5.457-1.421s.365-.04.469.249l.777,2.846a.587.587,0,0,0,.487.31l.212,0h.112a1.312,1.312,0,0,1,.97.274,1.15,1.15,0,0,1,.275.9c-.037,2.272-.041,4.681,0,7.368a1.212,1.212,0,0,1-.282.938,1.275,1.275,0,0,1-.911.281Zm-4.308-8.728a4.838,4.838,0,0,1,.818.638,4.43,4.43,0,0,1,1.375,3.228,4.446,4.446,0,0,1-1.379,3.192,4.734,4.734,0,0,1-1.4.934c1.695,0,3.327.007,4.907.014h.015c.29,0,.368-.054.383-.068s.071-.115.067-.418c-.034-2.694-.034-5.111,0-7.39,0-.289-.048-.364-.071-.375s-.1-.061-.375-.061h-.052c-1.383.018-2.788.018-4.159.014C-3090.882,685.2-3090.67,685.445-3090.67,685.445Zm-9.709-.249c-.019.014-.071.09-.067.375.034,2.384.034,4.891,0,7.459,0,.267.049.339.063.353s.1.065.4.065c1.7-.007,3.327-.011,4.9-.011a4.61,4.61,0,0,1-1.4-.934,4.452,4.452,0,0,1-1.356-3.239,4.473,4.473,0,0,1,1.371-3.2,4.682,4.682,0,0,1,.959-.718c.153-.126-.044-.2-.044-.2-1.446,0-2.929,0-4.39-.018h-.044C-3100.268,685.132-3100.353,685.171-3100.379,685.2Zm3.282,4.068a3.747,3.747,0,0,0,1.141,2.723,3.967,3.967,0,0,0,2.792,1.111h.074a3.9,3.9,0,0,0,3.869-3.794,3.731,3.731,0,0,0-1.156-2.712,3.992,3.992,0,0,0-2.792-1.133h-.011A3.886,3.886,0,0,0-3097.1,689.265Zm8.174-7.336-6.464,1.681s-.063.054.015.083h6.847a.352.352,0,0,0,.271-.429l-.32-1.165s0-.007,0-.011a.276.276,0,0,0-.284-.163A.446.446,0,0,0-3088.923,681.929Zm-7.523,7.4a3.22,3.22,0,0,1,3.267-3.17,3.218,3.218,0,0,1,3.268,3.17,3.22,3.22,0,0,1-3.268,3.17A3.22,3.22,0,0,1-3096.446,689.333Zm3.234,1.165,0,.5h.316l0-.509c.531-.025.907-.155.956-.638a.526.526,0,0,0-.461-.638.471.471,0,0,0,.275-.516c-.034-.364-.357-.487-.766-.523l0-.5h-.316l0,.49c-.082,0-.167,0-.253,0l0-.494h-.316l0,.5h-.2l-.435,0v.328s.234,0,.23,0a.165.165,0,0,1,.182.137l0,.574c.008,0,.022,0,.034,0H-3094l0,.8a.109.109,0,0,1-.119.1s-.23,0-.23,0l-.063.368h.413c.078,0,.152,0,.227,0l0,.509h.316l0-.5C-3093.38,690.5-3093.294,690.5-3093.212,690.5Zm-9.025.1c-.454-1.641-.907-3.286-1.375-4.981,0,0-.148-.646.331-.775.245-.069.479-.13.714-.195s.487-.134.743-.2c0,0,.476-.011.472.415v5.46c0,.462-.208.53-.208.53a.827.827,0,0,1-.308.061C-3102.134,690.9-3102.238,690.6-3102.238,690.6Zm0-5.291c-.045.014-.085.025-.13.036-.123.032-.249.065-.375.1-.1.025-.1.112-.093.18.2.729.4,1.446.595,2.16,0,0,.1.133.141-.018v-2.232c0-.209-.092-.228-.125-.228Zm8.78,4.808,0-.674c.216,0,.885-.054.885.339,0,.307-.434.337-.717.337Zm0-.985,0-.613c.178,0,.74-.05.74.31,0,.277-.36.3-.6.3Zm-10.39-4.79a.671.671,0,0,1-.327-.408l-.26-.909a.669.669,0,0,1,.483-.83l14.326-3.841a.7.7,0,0,1,.855.469l.26.909a.652.652,0,0,1-.067.512.683.683,0,0,1-.42.317l-14.326,3.837a.794.794,0,0,1-.182.029A.709.709,0,0,1-3103.844,684.345Zm.145-1.461.231.808,14.226-3.812-.231-.808Zm-.985-.873a.667.667,0,0,1-.327-.407l-.26-.909a.67.67,0,0,1,.484-.83l14.326-3.837a.7.7,0,0,1,.855.469l.26.909a.65.65,0,0,1-.067.512.682.682,0,0,1-.42.317l-14.326,3.838a.656.656,0,0,1-.182.025A.706.706,0,0,1-3104.684,682.012Zm.145-1.457.23.808,14.222-3.816-.231-.808Z" transform="translate(3105.297 -676.003)" fill="#edf2f4"/>
</svg>
