<svg xmlns="http://www.w3.org/2000/svg" width="17.962" height="18" viewBox="0 0 17.962 18">
  <path id="Union_21" data-name="Union 21" d="M-3016.47,685.625h-8.465l-.067-.034a.818.818,0,0,1-.477-.573,1.035,1.035,0,0,1,.257-.814l.034-.039.044-.026a23.068,23.068,0,0,1,2.24-1.172c.605-.273.8-.571.732-1.14a7.842,7.842,0,0,1,0-1.889c.172-1.313-.349-2.295-1.742-3.28l-.007-.005-.153-.106-.009-.006a8.247,8.247,0,0,1-1.227-1.173l-.006-.007-.05-.057a2.532,2.532,0,0,0-.9-.521,5.678,5.678,0,0,1-.883-.336c-1.68-.684-2.766-3.066-2.884-3.336l-.022-.056a1.822,1.822,0,0,1,.239-2.009,2.229,2.229,0,0,1,1.883-.5c0-.044,0-.073,0-.077,0-.067-.006-.131-.006-.185l-.012-.316h0c-.005-.128.005-.306.1-.324a1.447,1.447,0,0,1,.183-.01l.592.009h12.43a.377.377,0,0,1,.29.134c.053.062.17.2.114.749a2.021,2.021,0,0,1,1.561.524h0a1.822,1.822,0,0,1,.24,2.009l-.022.056c-.118.27-1.2,2.651-2.884,3.335l-.038.019c-.059.028-.138.064-.234.1a4.955,4.955,0,0,0-1.213.961l-.384.31c-.305.246-.609.528-.9.8s-.623.578-.95.841c-1.114.894-1.016,1.992-.9,3.264.034.385.069.779.065,1.17h0s0,.559.258.767a1.818,1.818,0,0,0,.2.14c.421.248.867.479,1.3.7.375.194.762.4,1.138.609a2.491,2.491,0,0,1,.552.47c.067.07.13.136.2.2l.19.176s.371.655-.291.655C-3016.4,685.63-3016.434,685.628-3016.47,685.625Zm-12.888-16.14a1.263,1.263,0,0,0-.1,1.353l.009.023c.054.12,1.1,2.42,2.55,3l.022.009a5.043,5.043,0,0,0,.822.31,3.554,3.554,0,0,1,1.148.681,8.038,8.038,0,0,0,1.195,1.162l.154.106.006,0a3.937,3.937,0,0,1,2.01,3.884,7.167,7.167,0,0,0,0,1.735,1.6,1.6,0,0,1-1.1,1.79,22.447,22.447,0,0,0-2.127,1.11.393.393,0,0,0-.086.241.177.177,0,0,0,.081.094h7.311c.319-.044.123-.311.116-.32-.357-.2-.731-.4-1.093-.584-.438-.227-.892-.462-1.328-.719-.087-.052-.854-.518-.8-1.026a7.845,7.845,0,0,0-.04-1.541c-.113-1.27-.242-2.709,1.137-3.815.309-.248.617-.534.915-.811s.608-.565.927-.823a3.822,3.822,0,0,0,.472-.509h0a3.706,3.706,0,0,1,1.216-.832c.154-.062.268-.115.32-.141l.021-.01c1.446-.581,2.5-2.881,2.55-3l.009-.023h0a1.264,1.264,0,0,0-.1-1.353,1.745,1.745,0,0,0-1.436-.3l-.167.021c-.258-.005-.2-.306-.2-.306l.015-.085c.014-.078.024-.134.029-.165l0-.025a2.819,2.819,0,0,0,.032-.349h-12.211a.235.235,0,0,0-.228.21l0,.064c.006.092.016.223.03.329l.015.119c.016.3-.271.255-.314.247h-.005l-.071-.014a3.768,3.768,0,0,0-.7-.073A1.389,1.389,0,0,0-3029.358,669.486Zm8.211,5.7a3.082,3.082,0,0,1-3.076-3.074,3.081,3.081,0,0,1,3.068-3.083,3.083,3.083,0,0,1,3.089,3.062,3.081,3.081,0,0,1-3.077,3.095Zm.367-1.317a.176.176,0,0,0-.106.124c-.011.214,0,.428,0,.664a2.6,2.6,0,0,0,1.825-1.049l-.669-.388A1.846,1.846,0,0,1-3020.78,673.871Zm-2.446-.26a2.59,2.59,0,0,0,1.819,1.045v-.762a1.9,1.9,0,0,1-1.151-.672Zm.8-1.519a1.294,1.294,0,0,0,1.271,1.3h0a1.294,1.294,0,0,0,1.295-1.278,1.291,1.291,0,0,0-1.259-1.289h-.034A1.292,1.292,0,0,0-3022.427,672.092Zm-1.042,1.1h0l.687-.387a1.964,1.964,0,0,1,.021-1.379l-.69-.4A2.683,2.683,0,0,0-3023.47,673.2Zm4.1-1.806a.191.191,0,0,0-.062.168,1.977,1.977,0,0,1-.038,1.222l.667.38h0a2.58,2.58,0,0,0-.006-2.1C-3019.015,671.179-3019.2,671.276-3019.371,671.389Zm-3.854-.779.669.388a1.888,1.888,0,0,1,1.139-.671v-.766A2.6,2.6,0,0,0-3023.224,670.611Zm2.347-.284a1.917,1.917,0,0,1,1.147.669l.666-.385a2.611,2.611,0,0,0-1.813-1.049Zm-6,3.156c-1.271-.6-2.232-2.731-2.242-2.753l-.01-.026c-.159-.46-.15-.787.026-.971a1.448,1.448,0,0,1,1.159-.189,1.459,1.459,0,0,1,.535.2,1.075,1.075,0,0,1,.375.592h0a14.8,14.8,0,0,0,.407,1.57c.032.08.236.574.523,1.148h0c.029.4-.211.493-.431.493A1.152,1.152,0,0,1-3026.874,673.483Zm-1.53-3.336c-.2.008-.166.209-.141.3,0,.013.008.027.013.041h0a6.741,6.741,0,0,0,1.545,2.174c-.131-.291-.214-.493-.229-.531l-.008-.022a15.439,15.439,0,0,1-.4-1.5h0c0-.009,0-.016,0-.024s0-.019-.006-.029a.631.631,0,0,0-.209-.31.445.445,0,0,0-.189-.073,2.771,2.771,0,0,0-.338-.022Zm12.392,2.58a20.238,20.238,0,0,0,.846-2.77l.009-.038c.028-.087.138-.3.574-.374h0a1.513,1.513,0,0,1,1.185.187c.177.184.186.511.026.971l-.01.026a7.361,7.361,0,0,1-1.914,2.56.948.948,0,0,1-.231.032C-3016.051,673.321-3016.011,672.727-3016.011,672.727Zm1.646-2.569a.3.3,0,0,0-.249.218c0,.008,0,.016-.006.024v0c-.1.4-.225.865-.375,1.347,0,0-.076.289.153.194a7.913,7.913,0,0,0,.876-1.46c.016-.046.027-.087.038-.124.023-.182-.105-.209-.155-.213h-.054C-3014.2,670.147-3014.281,670.151-3014.365,670.158Zm-7.032,2.792a1.7,1.7,0,0,0,.12-.191,1,1,0,0,0,.063-.218.5.5,0,0,1-.292.12.432.432,0,0,1-.462-.467.468.468,0,0,1,.194-.31c.147-.13.3-.259.437-.395a2.78,2.78,0,0,0,.192-.225l.119.146a3.17,3.17,0,0,0,.514.479h0a.413.413,0,0,1,.182.431.443.443,0,0,1-.707.245l-.041-.034a.667.667,0,0,0,.2.423A.846.846,0,0,0-3021.4,672.951Z" transform="translate(3030.23 -667.63)" fill="#edf2f4"/>
</svg>
