<svg xmlns="http://www.w3.org/2000/svg" width="26.658" height="18.216" viewBox="0 0 26.658 18.216">
  <path id="icon-horses_Mesa_de_trabajo_1" data-name="icon-horses_Mesa de trabajo 1" d="M147.482,219.431l0-.028a5.683,5.683,0,0,0-5.417-4.776,3.68,3.68,0,0,1-.769-.165,5.857,5.857,0,0,0-.725-.174c-.9-.138-1.849-.258-2.823-.356-.635-.063-1.28-.115-1.9-.164-1.191-.094-2.422-.191-3.61-.38a5.951,5.951,0,0,1-3.679-1.908,5.253,5.253,0,0,0-4.015-1.837h-.027a1.456,1.456,0,0,1-.5-.228l-.147-.085a.668.668,0,0,0-.563-.068.617.617,0,0,0-.141.071.565.565,0,0,0-.485.028.71.71,0,0,0-.333.56c-.05.2-.1.4-.141.595-.106.457-.2.888-.346,1.307-.118.35-.26.69-.409,1.05a11.979,11.979,0,0,0-.59,1.641,1.673,1.673,0,0,0,.73,1.695,2.031,2.031,0,0,0,1.775-.3,2.55,2.55,0,0,0,.662-.888,3.356,3.356,0,0,1,.271-.452l.008-.01c.082-.076.23-.129.458.085h0c.563.8,1.16,1.582,1.774,2.316a2.6,2.6,0,0,1,.539,1.973,2.247,2.247,0,0,1-.884,1.579c-2.146,1.54-2.343,3.77-2.533,5.926l-.006.068.013.067a.808.808,0,0,0,.34.508.757.757,0,0,0,.594.1l.032-.007.031-.011a1.3,1.3,0,0,0,.94-1.759,2.565,2.565,0,0,1,.584-2.138A2.97,2.97,0,0,1,128,222.106a.651.651,0,0,1,.647.433c.009.03.018.059.027.088a.089.089,0,0,1,0,.009h0a7.121,7.121,0,0,0,2.453,3.339,6.025,6.025,0,0,0,2.5,1.006l.03.006a.734.734,0,0,0,.607-.147.7.7,0,0,0,.235-.545v-.066l-.033-.116a1.624,1.624,0,0,0-.668-1.088,1.355,1.355,0,0,0-1.051-.063.812.812,0,0,1-.223-.1,3.231,3.231,0,0,1-1.693-2.284c-.171-.923-.094-1.127-.053-1.171s.267-.129,1.16-.029a8.418,8.418,0,0,0,4.917-.771,1.951,1.951,0,0,1,.2-.086l.055.079a8.289,8.289,0,0,1,1.03,1.743,1.246,1.246,0,0,1-.218.921,4.939,4.939,0,0,1-.859.728,6.63,6.63,0,0,0-.9.747,5.612,5.612,0,0,0-.8,1.171l-.051.09-.011.025a.963.963,0,0,0,.052.888.827.827,0,0,0,.78.321l.082,0,.075-.031.119-.048a1.615,1.615,0,0,0,1.143-1.274c.088-.367.987-.83,1.524-1.107l.267-.138a2.34,2.34,0,0,0,1.249-1.273,2,2,0,0,0-.263-1.564.506.506,0,0,1-.039-.1l.23.1a8.325,8.325,0,0,1,1.876.993,3.145,3.145,0,0,1,.863,1.7,4.006,4.006,0,0,0,1.875,2.833l.023.014.024.011a.963.963,0,0,0,.4.09.776.776,0,0,0,.305-.061.812.812,0,0,0,.452-.508l.028-.079v-.084c0-.053,0-.1,0-.155a1.5,1.5,0,0,0-1.047-1.705,1.947,1.947,0,0,1-.173-.294c-.035-.067-.071-.136-.109-.2a.754.754,0,0,1-.079-.288c-.108-1.2-.25-2.754-1.342-3.625a3.76,3.76,0,0,0-.935-.486.174.174,0,0,1-.042-.1l.169-2.165c0-.023.04-.434.343-.171h0a9.753,9.753,0,0,0,2.977,2.733l.024.012a1.046,1.046,0,0,0,1-.005.868.868,0,0,0,.342-.832Zm-3.938-2.938-.178-.226-.017-.022-.02-.02a.8.8,0,0,0-1.405.455l-.01.038-.244,3.13v.023a1.186,1.186,0,0,0,.132.5,1.468,1.468,0,0,0,.666.526c.051.018.1.037.147.058h0a2.332,2.332,0,0,1,1.214,1.909c-.009.138-.134.064-.134.064h0a2.85,2.85,0,0,0-.715-.886,9.129,9.129,0,0,0-2.089-1.12c-.33-.143-.672-.29-1.02-.458l-.427-.206a.284.284,0,0,0-.332.309l.083.42c.032.164.053.31.072.451a2.291,2.291,0,0,0,.215.816,1.131,1.131,0,0,1,.189.832,1.029,1.029,0,0,1-.438.5c-.359.224-.368-.038-.368-.038h0a2.056,2.056,0,0,0,.162-1.539,9.134,9.134,0,0,0-1.141-1.952c-.074-.106-.149-.212-.222-.318a.511.511,0,0,0-.445-.221,1.214,1.214,0,0,0-.347.062,2.975,2.975,0,0,0-.461.183,7.5,7.5,0,0,1-4.376.672c-.952-.107-1.579-.087-1.965.327s-.363,1.048-.188,2c0,.024.01.047.014.07h0c-.005.127-.1.074-.1.072a4.7,4.7,0,0,1-.3-.853,1.419,1.419,0,0,0-1.209-.918h-.008a3.646,3.646,0,0,0-2.646,1.3,4.347,4.347,0,0,1,1.113-1.147,3.189,3.189,0,0,0,1.275-2.236,3.528,3.528,0,0,0-.754-2.706c-.609-.728-1.2-1.5-1.757-2.3a1.267,1.267,0,0,0-.982-.642,1.233,1.233,0,0,0-.99.581,4.13,4.13,0,0,0-.354.582c-.056.1-.11.205-.166.3a1.16,1.16,0,0,1-.455.309.6.6,0,0,1-.7-.708c.125-.405.291-.805.465-1.225.149-.359.3-.73.432-1.11s.232-.794.323-1.187h0l.01-.042c.017-.057.061-.153.163-.152l.046,0a.528.528,0,0,0,.4-.257h0l0,0,0-.007c.018-.025.075-.08.218-.022l.018.008.021.01h0a1.369,1.369,0,0,0,.542.125h.027a4.268,4.268,0,0,1,3.3,1.516,6.867,6.867,0,0,0,4.243,2.216c1.224.195,2.475.293,3.684.389.619.049,1.258.1,1.883.162.957.1,1.89.213,2.773.349a5.046,5.046,0,0,1,.608.148,4.45,4.45,0,0,0,.978.2,4.815,4.815,0,0,1,4.4,3.31c.024.346-.328.221-.352.211a11.938,11.938,0,0,1-2.509-2.609Z" transform="translate(-120.828 -209.228)" fill="#edf2f4"/>
</svg>
