<svg xmlns="http://www.w3.org/2000/svg" width="12.565" height="18" viewBox="0 0 12.565 18">
  <g id="icon-poker-2_Mesa_de_trabajo_1" data-name="icon-poker-2_Mesa de trabajo 1" transform="translate(-212.999 -124.519)">
    <path id="Path_609" data-name="Path 609" d="M224.038,124.519c-3.178.014-6.355,0-9.533.009-1.072,0-1.5.421-1.5,1.506q-.015,7.471,0,14.942c0,1.145.406,1.536,1.551,1.538q4.721.01,9.442,0c.895,0,1.272-.213,1.45-.841l.115-15.931a1.322,1.322,0,0,0-1.526-1.223Zm-.257,17.248h0c-3.022-.04-6.045-.032-9.067,0-.675.006-.916-.22-.913-.9q.027-7.328,0-14.656c0-.653.2-.931.889-.925q4.58.038,9.159,0c.672-.005.91.217.9.9-.032,2.473-.013,4.946-.013,7.419s-.021,4.764.013,7.145c.011.73-.176,1.027-.97,1.017Z" transform="translate(0 0)" fill="#edf2f4"/>
    <path id="Path_610" data-name="Path 610" d="M323.759,329.814a3.1,3.1,0,0,1,.284-.386,1.3,1.3,0,0,1,1.263-.322,1.232,1.232,0,0,1,.975.94,1.763,1.763,0,0,1-.43,1.768c-.355.37-.757.694-1.139,1.037-.32.288-.641.574-.976.873a.926.926,0,0,0-.125-.154c-.368-.327-.746-.642-1.108-.975a9.224,9.224,0,0,1-.941-.934,1.745,1.745,0,0,1-.041-2.134,1.356,1.356,0,0,1,2.172.182,1.239,1.239,0,0,0,.066.106Z" transform="translate(-104.623 -197.824)" fill="#edf2f4"/>
    <path id="Path_611" data-name="Path 611" d="M270.266,188.964a1.176,1.176,0,0,1,.11-.149.5.5,0,0,1,.488-.124.475.475,0,0,1,.377.363.68.68,0,0,1-.166.683c-.137.143-.292.268-.44.4l-.377.337a.368.368,0,0,0-.048-.06c-.142-.126-.288-.248-.428-.377a3.554,3.554,0,0,1-.363-.361.674.674,0,0,1-.016-.824.524.524,0,0,1,.839.07c.006.013.015.024.026.041Z" transform="translate(-54.421 -62.048)" fill="#edf2f4"/>
    <path id="Path_612" data-name="Path 612" d="M488.006,565.754a1.175,1.175,0,0,1,.11-.149.5.5,0,0,1,.488-.124.475.475,0,0,1,.377.363.68.68,0,0,1-.166.683c-.137.143-.292.268-.44.4l-.377.337a.366.366,0,0,0-.048-.06c-.142-.126-.288-.248-.428-.377a3.539,3.539,0,0,1-.363-.361.674.674,0,0,1-.016-.824.524.524,0,0,1,.839.07c.006.013.015.024.026.041Z" transform="translate(-265.007 -426.458)" fill="#edf2f4"/>
  </g>
</svg>
