<svg xmlns="http://www.w3.org/2000/svg" width="70.186" height="33.901" viewBox="0 0 70.186 33.901">
  <path id="Union_47" data-name="Union 47" d="M-915.423-8858.031a4.745,4.745,0,0,1,4.8-5.079,4.356,4.356,0,0,1,3.054,1.263l-1.27,1.484a2.534,2.534,0,0,0-1.743-.756c-1.3,0-2.364,1.121-2.364,3.01,0,1.927.919,3.048,2.337,3.048a2.652,2.652,0,0,0,1.919-.888l1.27,1.458a4.244,4.244,0,0,1-3.283,1.432C-913.261-8853.06-915.423-8854.75-915.423-8858.031Zm45,3.983.608-.782a3.4,3.4,0,0,0,2.175.834c.972,0,1.446-.5,1.446-1.1,0-.719-.865-1.043-1.676-1.342-1.027-.365-2.189-.849-2.189-2.046,0-1.119.932-2,2.527-2a3.9,3.9,0,0,1,2.283.793l-.594.769a2.823,2.823,0,0,0-1.689-.625c-.919,0-1.338.469-1.338,1.015,0,.679.8.926,1.621,1.226,1.067.391,2.243.809,2.243,2.149,0,1.146-.946,2.1-2.675,2.1A4.52,4.52,0,0,1-870.419-8854.048Zm-7.269-2.723c0-2.291,1.5-3.723,3.175-3.723a3.048,3.048,0,0,1,2.067.832l-.068-1.222v-2.228h1.229v9.87h-1l-.122-.834h-.027a3.331,3.331,0,0,1-2.229,1C-876.5-8853.07-877.688-8854.413-877.688-8856.771Zm1.27-.01c0,1.7.73,2.723,2.027,2.723a2.555,2.555,0,0,0,1.878-.979v-3.71a2.628,2.628,0,0,0-1.784-.744C-875.486-8859.491-876.418-8858.4-876.418-8856.78Zm-15.539,1.7c0-1.536,1.391-2.3,4.512-2.643,0-.912-.31-1.785-1.513-1.785a4.137,4.137,0,0,0-2.2.757l-.486-.821a5.671,5.671,0,0,1,2.891-.925c1.783,0,2.54,1.158,2.54,2.9v4.35h-1.014l-.108-.847h-.041a4.014,4.014,0,0,1-2.432,1.017A1.958,1.958,0,0,1-891.957-8855.076Zm1.2-.078c0,.809.567,1.134,1.3,1.134a3.041,3.041,0,0,0,2.013-.938v-1.979C-889.917-8856.653-890.754-8856.065-890.754-8855.154Zm-4.053.589v-8.545h1.23v8.619c0,.346.162.482.351.482a1.19,1.19,0,0,0,.257-.024l.176.865a2.144,2.144,0,0,1-.716.1C-894.429-8853.07-894.808-8853.613-894.808-8854.565Zm-6.336.518.608-.782a3.4,3.4,0,0,0,2.175.834c.973,0,1.446-.5,1.446-1.1,0-.719-.865-1.043-1.675-1.342-1.027-.365-2.189-.849-2.189-2.046,0-1.119.932-2,2.527-2a3.894,3.894,0,0,1,2.283.793l-.594.769a2.824,2.824,0,0,0-1.689-.625c-.919,0-1.338.469-1.338,1.015,0,.679.8.926,1.621,1.226,1.067.391,2.243.809,2.243,2.149,0,1.146-.946,2.1-2.675,2.1A4.52,4.52,0,0,1-901.144-8854.048Zm-2.216.818v-9.881h1.256v9.881Zm-24.048-.011-.58-2.227h-2.972l-.581,2.227H-934l3.121-9.687h2.891l3.121,9.688Zm-2.877-4.844-.216.821h2.054l-.216-.821c-.27-.964-.527-2.123-.8-3.113h-.054C-929.758-8860.181-930.029-8859.048-930.285-8858.084Zm50.314,4.844v-4.324c0-1.327-.419-1.888-1.392-1.888a2.82,2.82,0,0,0-2.013,1.08v5.132h-1.23v-7.07h1.013l.109,1.015h.04a3.569,3.569,0,0,1,2.459-1.2c1.54,0,2.243.963,2.243,2.774v4.479Zm-43.842,0v-9.687h3.513c2.081,0,3.743.533,3.743,2.395a2.259,2.259,0,0,1-1.31,2.1v.054a2.209,2.209,0,0,1,1.783,2.277c0,1.979-1.743,2.864-3.932,2.864Zm2.418-1.784h1.2c1.161,0,1.756-.4,1.756-1.237,0-.794-.581-1.106-1.756-1.106h-1.2Zm0-4.063h1c1.027,0,1.486-.428,1.486-1.093,0-.689-.473-.976-1.486-.976h-1Zm10.867-15.966a10.88,10.88,0,0,1,6.612-9.926.624.624,0,0,0,.543.025c.021-.01.644-.138.606-.045a2.352,2.352,0,0,1-.947.373,7.251,7.251,0,0,1,.935,1.163.8.8,0,0,0,.883.379.6.6,0,0,1,.545.272c-.346.02-.7.062-1.057.062.057,0,.295.467.335.528.121.19.245.38.375.563a6.7,6.7,0,0,0,.868.992,5.658,5.658,0,0,0-2.219-.784,4.488,4.488,0,0,0-2.133.114,4.834,4.834,0,0,0-2.184,1.543,3.241,3.241,0,0,0-.4.691,4.363,4.363,0,0,0-.329,1.756,11.636,11.636,0,0,0,1.677-.448,1.469,1.469,0,0,0,.632-.625c.251-.468.408-.872.639-1.354a1.047,1.047,0,0,1,.093.762,2.715,2.715,0,0,1-.456.955c1.735-.444,1.812-.8,2.559-2.093a1.5,1.5,0,0,1-.312,1.4,3.168,3.168,0,0,0,1.652-1.116,1.751,1.751,0,0,1,.484.5,8.308,8.308,0,0,1-.8.607c-.536.369-1.139.64-1.669,1.015a3.465,3.465,0,0,0-1.247,1.923,4.5,4.5,0,0,0,.557,4.156,2.962,2.962,0,0,0,.9-1.116c.122-.234-.071-.46-.218-.634-.016-.021-.464-.605-.349-.6.1.01.9.754.863.842a5.963,5.963,0,0,1,.749-1.293.754.754,0,0,0,.083-.992,7.811,7.811,0,0,0-.54-.7c.608-.125.926.575.952,1.019a7.386,7.386,0,0,0,1.569-2.355c.036.132.065.265.1.4a20.3,20.3,0,0,0-1.371,5.917c-.054.869-.1,1.744-.133,2.616a14.81,14.81,0,0,0-5.3,1.408A10.676,10.676,0,0,1-910.528-8875.054Zm10.4,6.4a31.374,31.374,0,0,1,1.062-9.084,8.348,8.348,0,0,0,1.661,2.681c.2-.395.438-.774.651-1.149.162.126.132.544.015.691a.852.852,0,0,0-.048,1.1,6.574,6.574,0,0,1,.827,1.419c-.045-.1.839-.919.948-.926.127-.011-.364.637-.382.656-.16.191-.372.44-.237.7a3.223,3.223,0,0,0,.989,1.224,4.947,4.947,0,0,0,.6-4.574c-.656-2.115-1.5-2.106-3.06-3.118a2.616,2.616,0,0,1-.838-.7,10.018,10.018,0,0,1,1.292.274c-.055-.355-.3-.521-.3-.857,0-.054.094-.431.123-.387a11.12,11.12,0,0,0,.738,1.079c.143.172.237.4.506.479,1.21.372,2.485.7,3.74.957-.419-.5-.958-1.315-1.382-1.811a6.727,6.727,0,0,1,1.9,1.621,3.741,3.741,0,0,0,1.909,1.228c.473.157.881.355,1.332.539-1.518-5.108-6.359-6.786-10.871-4.148-.07-.2-.134-.39-.19-.569-.186-.6-.269-1.218-.463-1.821a4.116,4.116,0,0,0-1.359-1.841,6.974,6.974,0,0,0-.921-.669,11.861,11.861,0,0,1,2.648-.306,11.1,11.1,0,0,1,11.314,10.878,10.656,10.656,0,0,1-3.246,7.651A25.787,25.787,0,0,0-900.13-8868.65Z" transform="translate(934.687 8886.461)" fill="#fff" stroke="rgba(0,0,0,0)" stroke-miterlimit="10" stroke-width="1"/>
</svg>
