<svg id="Group_6905" data-name="Group 6905" xmlns="http://www.w3.org/2000/svg" xmlns:xlink="http://www.w3.org/1999/xlink" width="112" height="93.452" viewBox="0 0 112 93.452">
  <defs>
    <clipPath id="clip-path">
      <rect id="Rectangle_3080" data-name="Rectangle 3080" width="112" height="93.452" fill="none"/>
    </clipPath>
  </defs>
  <g id="Group_6904" data-name="Group 6904" clip-path="url(#clip-path)">
    <path id="Path_6655" data-name="Path 6655" d="M10.265,43.407c1.871-.406,3.724-.922,5.612-1.217a1.956,1.956,0,0,0,1.9-1.851,7.808,7.808,0,0,1,7.849-6.494q12.8,0,25.607,0a7.317,7.317,0,0,0,1.535-.077c3.411-.743,6.817-1.513,10.222-2.285,2.87-.65,5.736-1.318,8.606-1.97Q77.356,28.2,83.116,26.9c2.137-.483,4.277-.95,6.41-1.451.813-.191,1.191.079,1.361.9.368,1.777.767,3.55,1.238,5.3.592,2.2.629,2.189,2.916,2.183.514,0,1.029-.013,1.542,0,.876.027,1.071-.435.88-1.188-.11-.431-.24-.858-.337-1.292q-1.34-5.964-2.671-11.929c-.868-3.873-1.716-7.75-2.616-11.615C91.422,6.028,91.216,4.158,90,2.639c-2.214-2.773-5.131-3-8.292-2.306-3.208.706-6.405,1.46-9.609,2.185-2.77.627-5.543,1.24-8.313,1.865Q56.478,6.033,49.168,7.69c-2.8.633-5.61,1.254-8.412,1.893-3.738.852-7.47,1.731-11.21,2.572-3.872.872-7.752,1.705-11.627,2.568-4.01.893-8,1.859-12.028,2.688a7.134,7.134,0,0,0-5.75,8.279c.773,3.685,1.658,7.346,2.5,11.016.648,2.837,1.312,5.671,1.954,8.509.7,3.106,1.383,6.217,2.077,9.324C7.341,57.547,8,60.556,8.7,63.557c.518,2.233.994,4.483,1.657,6.675A5.4,5.4,0,0,0,16.3,73.74a1.31,1.31,0,0,0,.846-.879,18.81,18.81,0,0,0,.006-3.183c-.019-.283-.378-.77-.59-.774-1.586-.032-1.836-1.179-2.093-2.35-.653-2.975-1.291-5.954-1.961-8.925Q11.044,51.115,9.538,44.61c-.152-.659.036-1.052.726-1.2M7.279,30.074a.871.871,0,0,1-1.171-.692c-.353-1.5-.674-3-.929-4.147a2.813,2.813,0,0,1,2.453-3.086c5.479-1.215,10.965-2.4,16.441-3.636,5.54-1.249,11.067-2.554,16.606-3.809,3.8-.862,7.617-1.666,11.42-2.522,3.739-.842,7.466-1.731,11.2-2.573,3.87-.873,7.749-1.707,11.621-2.571,2.806-.626,5.607-1.273,8.411-1.908a2.612,2.612,0,0,1,3.239,1.932c.311,1.227.508,2.481.793,3.715.188.812-.1,1.2-.907,1.38-5.04,1.128-10.071,2.3-15.111,3.431-3.773.848-7.56,1.633-11.33,2.492-5.437,1.238-10.861,2.534-16.3,3.776-3.8.869-7.621,1.672-11.425,2.534-3.7.838-7.4,1.727-11.1,2.569-3.837.872-7.68,1.714-11.52,2.57-.8.179-1.6.368-2.4.548" transform="translate(0 0)" fill="#fff"/>
    <path id="Path_6656" data-name="Path 6656" d="M135.95,86.889a6.925,6.925,0,0,0-7.129-7.155q-39.427-.006-78.854,0c-4.368,0-7.346,2.881-7.354,7.239q-.043,22.113.015,44.227a7.5,7.5,0,0,0,.647,3.08,6.6,6.6,0,0,0,6.472,4.015q19.739-.043,39.478-.012,19.842,0,39.684,0a6.765,6.765,0,0,0,7.043-7.059q.009-22.165,0-44.33m-3.966,41.142c0,2.484-.641,4.722-3.126,5.749a10.79,10.79,0,0,1-4.007.692q-23.7.068-47.4.029c-8.054,0-16.108.017-24.162-.014a7.113,7.113,0,0,1-4.834-1.368c-1.634-1.38-1.918-3.278-1.925-5.221-.032-8.709-.014-17.418-.015-26.128,0-4.149-.034-8.3.022-12.446a15.482,15.482,0,0,1,.477-3.451c.442-1.8,1.932-2.372,3.547-2.65a13.372,13.372,0,0,1,2.252-.133q17.942-.012,35.884-.005,18.4,0,36.809,0a6.179,6.179,0,0,1,6.068,4.059,7.345,7.345,0,0,1,.395,2.516q.035,19.184.015,38.368" transform="translate(-23.956 -44.843)" fill="#fff"/>
    <path id="Path_6657" data-name="Path 6657" d="M158.644,137.944a10.924,10.924,0,0,0-5.5,2.072c.771.888,1.43,1.625,2.064,2.382,2.739,3.271,3.3,7.123,2.589,11.132a13.5,13.5,0,0,1-3.986,7.161c-.636.634-.512,1.087.192,1.417a15.2,15.2,0,0,0,2.94,1.183c6.075,1.41,12.367-.96,15.061-7.153a12.56,12.56,0,0,0-.633-12.03c-2.882-4.755-7.253-6.662-12.726-6.163" transform="translate(-86.132 -77.54)" fill="#fff"/>
    <path id="Path_6658" data-name="Path 6658" d="M120.536,157.453a12.534,12.534,0,0,1,.043-13.616c.8-1.338,1.829-2.538,2.82-3.891a13.011,13.011,0,0,0-1.165-.8,12.4,12.4,0,0,0-7.8-1.162,12.646,12.646,0,0,0-10.659,15.159,12.917,12.917,0,0,0,18.876,8.992c.848-.443.865-.768.273-1.5a26.949,26.949,0,0,1-2.394-3.18" transform="translate(-58.237 -77.511)" fill="#fff"/>
    <path id="Path_6659" data-name="Path 6659" d="M149.6,157.69a13.475,13.475,0,0,0-3.624-12.457,1.225,1.225,0,0,0-2.01-.044,12.235,12.235,0,0,0-3.974,9.536,11.78,11.78,0,0,0,3.761,9.087c.934.866,1.444.855,2.384,0a10.814,10.814,0,0,0,3.463-6.124" transform="translate(-78.737 -81.375)" fill="#fff"/>
    <path id="Path_6660" data-name="Path 6660" d="M183.7,103.96c-.558-2.5-1.1-5.008-1.7-7.5-.072-.3-.435-.742-.676-.75a18.624,18.624,0,0,0-3.765.137,2.35,2.35,0,0,0-1.318,1.261c-.968,2-1.822,4.049-2.72,6.08-.954,2.157-1.915,4.311-2.862,6.471-.417.95-.233,1.224.82,1.25.65.016,1.3-.033,1.95.013a1.439,1.439,0,0,0,1.761-1.283A1.21,1.21,0,0,1,176.6,108.6c.957.031,1.918.043,2.874,0,.866-.041,1.373.228,1.416,1.171.038.847.538,1.2,1.37,1.144.273-.02.547,0,.821,0h.411c1.577,0,1.685-.107,1.372-1.647-.361-1.774-.77-3.539-1.164-5.306m-4.738,1.237c-1.839.16-2.042-.053-1.412-1.727.327-.867.752-1.7,1.133-2.544l.295.063c.236,1.122.479,2.243.706,3.366.116.573-.157.792-.722.841" transform="translate(-95.866 -53.813)" fill="#fff"/>
    <path id="Path_6661" data-name="Path 6661" d="M97.615,110.82c.783-.065,1.59.072,2.358-.052a1.729,1.729,0,0,0,1.144-.766c.727-1.47,1.334-3,1.985-4.507,1.235-2.859,2.484-5.713,3.7-8.58.477-1.127.279-1.381-.973-1.4-.617-.011-1.237.038-1.85-.012a1.458,1.458,0,0,0-1.642,1.08c-.429,1.155-.878,2.3-1.328,3.449-.626,1.594-1.261,3.184-1.991,5.023-.172-.512-.266-.728-.317-.953-.507-2.235-1-4.472-1.511-6.707-.316-1.393-.768-1.826-2.161-1.861-1.781-.046-3.564-.014-5.346,0a4.8,4.8,0,0,0-.857.161c-.018.114-.035.228-.053.342a17.716,17.716,0,0,1,2.6,1.027,3.261,3.261,0,0,1,1.514,1.515c1.095,3.6,2.068,7.237,3.034,10.875.247.931.654,1.45,1.693,1.363" transform="translate(-49.928 -53.707)" fill="#fff"/>
    <path id="Path_6662" data-name="Path 6662" d="M145.254,110.189c1.141.2,2.3.3,3.829.492a28,28,0,0,0,3.638-.867,4.493,4.493,0,0,0,3.17-3.923c.23-2.135-.9-3.4-2.636-4.322a17.133,17.133,0,0,1-2.072-1.121c-.372-.269-.871-.9-.771-1.162a1.708,1.708,0,0,1,1.2-.92,10.6,10.6,0,0,1,3.05.144c1.229.25,1.334.276,1.571-.926.059-.3.07-.616.147-.913.231-.9-.163-1.348-1.008-1.546a10.158,10.158,0,0,0-6.64.5,4.645,4.645,0,0,0-2.989,4.21c-.068,1.849,1.193,2.9,2.621,3.758.673.4,1.444.664,2.067,1.129.386.287.834.867.785,1.256a1.51,1.51,0,0,1-1.072.986,14.31,14.31,0,0,1-3.554-.089c-2.161-.361-2.1-.424-2.382,1.758-.119.93.238,1.409,1.048,1.554" transform="translate(-81.092 -53.316)" fill="#fff"/>
    <path id="Path_6663" data-name="Path 6663" d="M130.892,110.8c2.237,0,2.186-.008,2.531-2.167q.952-5.972,2.029-11.922c.151-.835-.095-1.177-.886-1.193a11.942,11.942,0,0,0-2.352.039,1.527,1.527,0,0,0-1.046.86c-.321,1.289-.47,2.621-.687,3.936-.452,2.731-.838,5.476-1.379,8.189-.454,2.275-.534,2.26,1.79,2.259" transform="translate(-72.467 -53.7)" fill="#fff"/>
  </g>
</svg>
