<svg xmlns="http://www.w3.org/2000/svg" xmlns:xlink="http://www.w3.org/1999/xlink" width="118.435" height="89.126" viewBox="0 0 118.435 89.126">
  <defs>
    <clipPath id="clip-path">
      <rect id="Rectangle_3079" data-name="Rectangle 3079" width="118.435" height="89.126" transform="translate(0 0)" fill="none"/>
    </clipPath>
  </defs>
  <g id="Group_6902" data-name="Group 6902" clip-path="url(#clip-path)">
    <path id="Path_6652" data-name="Path 6652" d="M60.268,57.258c.005-2.023.007-2.026-1.955-2.028q-5.817,0-11.634,0c-.533,0-1.064-.054-1.6-.082-.047-.131-.094-.26-.14-.391.323-.307.639-.625.975-.921,2.393-2.1,4.778-4.21,7.19-6.287,3.948-3.4,6.408-7.531,6.71-12.864a12.819,12.819,0,0,0-7.04-12.5,14.31,14.31,0,0,0-10.24-.929,17.4,17.4,0,0,0-10.885,7.945,1.282,1.282,0,0,0,.182,1.848c1.291,1.186,2.559,2.395,3.834,3.6a1.246,1.246,0,0,0,2.095-.128,29.488,29.488,0,0,1,3.558-3.658c1.841-1.487,5.566-1.259,7.274.234a5.371,5.371,0,0,1,.921,6.507,18.011,18.011,0,0,1-3.179,4.324c-3.829,3.6-7.772,7.084-11.763,10.5-4.213,3.609-4.261,3.553-4.257,9.04a12.338,12.338,0,0,1,0,1.246c-.119,1.16.421,1.553,1.536,1.527,2.122-.047,4.247-.012,6.371-.012q10.245,0,20.491.007c.919,0,1.626-.047,1.574-1.3-.079-1.887-.021-3.779-.016-5.669" transform="translate(22.628 15.474)" fill="#fff"/>
    <path id="Path_6653" data-name="Path 6653" d="M46.236,49.458c-4.213-3.523-11.014-4.975-15.994-.536l0-.007c-1.087.676-1.293-.458-1.293-.458-.066-1.813-.061-1.819-1.909-1.824-1.941-.005-3.883.073-5.817-.026-1.384-.072-1.7.48-1.691,1.77.054,6.558.028,13.116.019,19.673-.26,1.607-1.6,1.078-1.6,1.078a7.417,7.417,0,0,1-2.292-2.079A24.185,24.185,0,0,1,11.581,58.2c-2.06-7.669-.519-14.482,4.924-20.259,3.824-4.06,8.413-6.717,14.221-6.72,1.177,0,1.639.423,1.607,1.632-.066,2.493-.028,4.987-.01,7.482.005.468.1.936.194,1.68,10.537-7.078,20.914-13.842,31.363-21.055C53.211,13.837,42.948,6.982,32.488,0a7.864,7.864,0,0,0-.269,1.307c-.01,2.355-.04,4.711.026,7.064.058,2,.108,1.988-1.8,1.976-.646,0-1.289.1-1.934.133-10.9.641-18.872,6.09-24.378,15.252C.833,31.22-.132,37.35.015,43.709c.293,12.909,6.736,21.784,17.94,27.548a2.48,2.48,0,0,1,1.632,2.536c-.075,4.617-.023,9.236-.035,13.854,0,.8.019,1.49,1.113,1.478,2.309-.023,4.619-.012,6.928,0,.8,0,1.193-.36,1.181-1.172-.031-2.122-.063-4.245-.08-6.367-.016-1.663,0-3.328,0-5.331.852.566,1.345.879,1.825,1.214a12.53,12.53,0,0,0,18.59-4.1c2.4-4.217,2.875-8.759,2.3-13.524-.5-4.112-1.948-7.69-5.167-10.382M40.922,68.02a6.14,6.14,0,0,1-10.776.4,9.969,9.969,0,0,1,.192-10.834,5.856,5.856,0,0,1,5.887-2.559,6.769,6.769,0,0,1,5.5,4.495,6.66,6.66,0,0,1,.29.938,13.626,13.626,0,0,1-1.092,7.564" transform="translate(0.001 -0.001)" fill="#fff"/>
    <path id="Path_6654" data-name="Path 6654" d="M81.472,43.729c-.22-5.326-1.109-10.457-5.394-14.2-4.46-3.89-10.74-4.975-15.919-.25-.328.3-.674.576-1.268,1.085a8.793,8.793,0,0,1-.147-1.431c.126-1.279-.435-1.712-1.687-1.665-2.03.075-4.063.054-6.095.007-1.069-.026-1.494.391-1.492,1.459q.024,19.676,0,39.348c0,1.006.372,1.415,1.385,1.394,2.077-.04,4.158-.065,6.233.01,1.246.044,1.584-.463,1.56-1.639-.065-3-.024-6-.017-9.005,0-.484.056-.968.1-1.738.657.377,1.081.606,1.492.858,5.265,3.225,13.519,2.512,17.6-2.764a16.97,16.97,0,0,0,3.651-11.473M70.2,49.57c-1.763,1.939-4.519,2.626-7.657,1.544a5.379,5.379,0,0,1-3.261-3.176,11.123,11.123,0,0,1,.14-8.876c1.067-2.585,3.209-3.7,6.261-3.55a6.45,6.45,0,0,1,5.655,4.3c.152.547,1.541,5.892-1.137,9.76" transform="translate(36.946 19.535)" fill="#fff"/>
  </g>
</svg>
