<svg id="Logotipo_ABC" data-name="Logotipo ABC" xmlns="http://www.w3.org/2000/svg" xmlns:xlink="http://www.w3.org/1999/xlink" width="139.05" height="28.97" viewBox="0 0 139.05 28.97">
  <defs>
    <clipPath id="clip-path">
      <rect id="Rect치ngulo_455" data-name="Rect치ngulo 455" width="139.05" height="28.97" fill="none"/>
    </clipPath>
  </defs>
  <g id="Grupo_606" data-name="Grupo 606" clip-path="url(#clip-path)">
    <path id="Trazado_584" data-name="Trazado 584" d="M143.208,38.668h-4.414l-.863,3.431H134.28l4.635-14.928h4.294L147.843,42.1h-3.772Zm-.682-2.769-.321-1.264c-.4-1.485-.782-3.27-1.183-4.8h-.08c-.361,1.565-.763,3.311-1.144,4.8l-.321,1.264Z" transform="translate(-97.697 -19.769)" fill="#fff"/>
    <path id="Trazado_585" data-name="Trazado 585" d="M189.808,27.171h5.217c3.09,0,5.558.823,5.558,3.692a3.487,3.487,0,0,1-1.946,3.23v.08a3.386,3.386,0,0,1,2.648,3.511c0,3.05-2.588,4.414-5.839,4.414h-5.638Zm5.076,5.919c1.525,0,2.207-.662,2.207-1.685,0-1.064-.7-1.5-2.207-1.5H193.4v3.19Zm.3,6.26c1.725,0,2.608-.622,2.608-1.906,0-1.224-.863-1.705-2.608-1.705H193.4V39.35Z" transform="translate(-138.096 -19.768)" fill="#fff"/>
    <path id="Trazado_586" data-name="Trazado 586" d="M235.542,33.965c0-4.976,3.331-7.825,7.123-7.825a6.359,6.359,0,0,1,4.535,1.946l-1.886,2.287a3.7,3.7,0,0,0-2.588-1.164c-1.926,0-3.511,1.725-3.511,4.635,0,2.969,1.364,4.695,3.471,4.695a3.88,3.88,0,0,0,2.849-1.364l1.886,2.247a6.213,6.213,0,0,1-4.876,2.207c-3.792,0-7-2.608-7-7.664" transform="translate(-171.371 -19.018)" fill="#fff"/>
    <rect id="Rect치ngulo_454" data-name="Rect치ngulo 454" width="1.866" height="15.222" transform="translate(82.086 7.122)" fill="#fff"/>
    <path id="Trazado_587" data-name="Trazado 587" d="M313.376,50.875l.9-1.2a4.943,4.943,0,0,0,3.23,1.284c1.445,0,2.147-.762,2.147-1.705,0-1.1-1.284-1.605-2.488-2.066-1.525-.562-3.251-1.3-3.251-3.15,0-1.726,1.385-3.09,3.752-3.09a5.646,5.646,0,0,1,3.391,1.224l-.883,1.184a4.1,4.1,0,0,0-2.508-.963c-1.364,0-1.986.722-1.986,1.565,0,1.043,1.184,1.424,2.408,1.886,1.585.6,3.33,1.244,3.33,3.31,0,1.766-1.4,3.23-3.972,3.23a6.571,6.571,0,0,1-4.073-1.5" transform="translate(-227.999 -29.788)" fill="#fff"/>
    <path id="Trazado_588" data-name="Trazado 588" d="M347.915,39.31V26.141h1.826V39.424c0,.532.241.741.521.741a1.681,1.681,0,0,0,.381-.038l.261,1.331a3.031,3.031,0,0,1-1.063.152c-1.364,0-1.926-.836-1.926-2.3" transform="translate(-253.129 -19.019)" fill="#fff"/>
    <path id="Trazado_589" data-name="Trazado 589" d="M363.454,49.29c0-2.368,2.066-3.551,6.7-4.073,0-1.4-.461-2.749-2.247-2.749a6,6,0,0,0-3.27,1.164l-.723-1.264a8.2,8.2,0,0,1,4.294-1.424c2.648,0,3.772,1.786,3.772,4.474v6.7h-1.5l-.16-1.3h-.06a5.837,5.837,0,0,1-3.612,1.565,2.954,2.954,0,0,1-3.19-3.09m6.7.181V46.42c-3.672.441-4.916,1.344-4.916,2.749,0,1.244.843,1.746,1.926,1.746a4.452,4.452,0,0,0,2.989-1.445" transform="translate(-264.434 -29.788)" fill="#fff"/>
    <path id="Trazado_590" data-name="Trazado 590" d="M403.526,41.224h1.5l.161,1.565h.06a5.223,5.223,0,0,1,3.652-1.846c2.287,0,3.331,1.485,3.331,4.274v6.9h-1.826V45.457c0-2.047-.622-2.909-2.066-2.909-1.124,0-1.886.562-2.99,1.665v7.905h-1.826Z" transform="translate(-293.589 -29.788)" fill="#fff"/>
    <path id="Trazado_591" data-name="Trazado 591" d="M441.233,35.911c0-3.531,2.227-5.738,4.715-5.738a4.432,4.432,0,0,1,3.07,1.284l-.1-1.886V26.14h1.826V41.348h-1.485l-.181-1.284h-.04a4.86,4.86,0,0,1-3.311,1.545c-2.729,0-4.494-2.066-4.494-5.7m7.684,2.669V32.862a3.825,3.825,0,0,0-2.648-1.144c-1.766,0-3.15,1.685-3.15,4.173,0,2.628,1.083,4.193,3.01,4.193a3.744,3.744,0,0,0,2.789-1.5" transform="translate(-321.023 -19.018)" fill="#fff"/>
    <path id="Trazado_592" data-name="Trazado 592" d="M480.855,50.875l.9-1.2a4.942,4.942,0,0,0,3.23,1.284c1.445,0,2.147-.762,2.147-1.705,0-1.1-1.284-1.605-2.488-2.066-1.525-.562-3.25-1.3-3.25-3.15,0-1.726,1.385-3.09,3.752-3.09a5.646,5.646,0,0,1,3.391,1.224l-.883,1.184a4.1,4.1,0,0,0-2.508-.963c-1.364,0-1.986.722-1.986,1.565,0,1.043,1.184,1.424,2.408,1.886,1.585.6,3.33,1.244,3.33,3.31,0,1.766-1.4,3.23-3.972,3.23a6.571,6.571,0,0,1-4.073-1.5" transform="translate(-349.85 -29.788)" fill="#fff"/>
    <path id="Trazado_593" data-name="Trazado 593" d="M13.325,26.589a32.276,32.276,0,0,1,2.036-9.118c-.05-.2-.092-.4-.146-.607-.41,1.452-1.438,2.436-2.33,3.629-.04-.683-.512-1.761-1.414-1.57a12.23,12.23,0,0,1,.8,1.076,1.2,1.2,0,0,1-.123,1.531,9.366,9.366,0,0,0-1.112,1.989c.06-.134-1.136-1.28-1.282-1.293-.172-.015.494.889.518.918.217.266.5.618.323.979A4.5,4.5,0,0,1,9.267,25.84a7.144,7.144,0,0,1-.826-6.4,5.357,5.357,0,0,1,1.851-2.961c.788-.58,1.683-.995,2.479-1.562a12.061,12.061,0,0,0,1.188-.939,2.616,2.616,0,0,0-.719-.762,4.725,4.725,0,0,1-2.453,1.718,2.38,2.38,0,0,0,.463-2.155c-1.109,2-1.223,2.539-3.8,3.227a4.281,4.281,0,0,0,.678-1.476,1.653,1.653,0,0,0-.137-1.168c-.343.739-.575,1.359-.949,2.081A2.2,2.2,0,0,1,6.1,16.4a16.146,16.146,0,0,1-2.491.692A6.935,6.935,0,0,1,4.1,14.387a5.154,5.154,0,0,1,.593-1.064,7.183,7.183,0,0,1,3.243-2.379,6.457,6.457,0,0,1,3.167-.175,8.245,8.245,0,0,1,3.3,1.206,10.2,10.2,0,0,1-1.288-1.525c-.193-.285-.377-.576-.557-.869-.059-.1-.413-.815-.5-.815.527,0,1.056-.066,1.569-.1a.89.89,0,0,0-.809-.419,1.177,1.177,0,0,1-1.311-.583,11.07,11.07,0,0,0-1.388-1.792A3.385,3.385,0,0,0,11.525,5.3c.056-.143-.87.058-.9.067a.889.889,0,0,1-.806-.035A16.774,16.774,0,0,0,5.254,32.79a21.364,21.364,0,0,1,7.873-2.168c.054-1.346.117-2.691.2-4.032" transform="translate(0 -3.819)" fill="#fff"/>
    <path id="Trazado_594" data-name="Trazado 594" d="M51.019,0a16.83,16.83,0,0,0-3.932.473A10.34,10.34,0,0,1,48.455,1.5,6.334,6.334,0,0,1,50.473,4.34c.288.925.411,1.874.687,2.8.083.279.178.579.282.88,6.7-4.065,13.889-1.481,16.144,6.391-.67-.285-1.275-.589-1.978-.829a5.542,5.542,0,0,1-2.835-1.893,10.152,10.152,0,0,0-2.827-2.5c.63.766,1.43,2.022,2.053,2.792-1.864-.4-3.758-.9-5.555-1.474-.4-.128-.539-.474-.751-.738a16.955,16.955,0,0,1-1.1-1.661c-.043-.068-.182.513-.182.6,0,.514.37.773.452,1.316A15,15,0,0,0,52.948,9.6a3.875,3.875,0,0,0,1.244,1.075c2.312,1.561,3.569,1.547,4.544,4.807a7.862,7.862,0,0,1-.891,7.048,4.949,4.949,0,0,1-1.469-1.885c-.2-.4.114-.785.353-1.079.026-.032.756-1.029.567-1.012-.161.015-1.473,1.279-1.407,1.426A10.312,10.312,0,0,0,54.66,17.8a1.347,1.347,0,0,1,.072-1.7c.174-.227.218-.873-.022-1.067-.316.579-.675,1.165-.967,1.769a12.934,12.934,0,0,1-2.467-4.129,50.109,50.109,0,0,0-1.577,14A37.007,37.007,0,0,1,63,28.549,16.779,16.779,0,0,0,51.019,0" transform="translate(-34.259 0)" fill="#fff"/>
  </g>
</svg>
